# xmcd
#
# Track frame offsets:
#	150
#	14760
#	28977
#	42525
#	56920
#	68257
#	79477
#	91625
#	105955
#	118070
#	132775
#	144025
#	159252
#	173380
#	186030
#	200805
#	213815
#	226197
#
# Disc length: 3199 seconds
#
# Revision: 0
# Processed by: cddbd v1.5.2PL0 Copyright (c) Steve Scherf et al.
# Submitted via: EasyCDDAExtractor 16.0.6.1
#
DISCID=e70c7d12
DTITLE=Νικολάου Φίλιππος - Όταν-Φίλιππος Νικολάου
DYEAR=1971
DGENRE=Ελαφρολαϊκή
TTITLE0=Όταν [Νάκης Πετρίδης-Φίλιππος Νικολάου]
TTITLE1=Όπου εγωϊσμός [Γιώργος Χατχηνάσιος-Τάσος Οικονόμου]
TTITLE2=Προτού ένα αντίο πούμε [Κωνσταντίνος Κατσίγρας-Φίλιππος Νικολάου]
TTITLE3=Το παλιό το μαγαζάκι [Ζακ Ιακωβίδης-Ηλίας Λυμπερόπουλος]
TTITLE4=Πήρα απόφαση να φύγω [Δημήτρης Μηλιός-Φίλιππος Νικολάου]
TTITLE5=Αγάπη φθινοπωρινή (Φύλλα φθινοπώρου)[Φίλιππος Νικολάου]
TTITLE6=Μιά καρδιά για σένανε [Δημήτρης Μηλιός-Φίλιππος Νικολάου]
TTITLE7=Η αξία της σιωπής [Φίλιππος Νικολάου]
TTITLE8=Του φίλου μου η γυναίκα [Δημήτρης Μηλιός-Φίλιππος Νικολάου]
TTITLE9=Κάποια Κυριακή [Φίλιππος Νικολάου]
TTITLE10=Τότε πες, πως δε με θες [Νάκης Πετρίδης-Φίλιππος Νικολάου]
TTITLE11=Τη νύχτα που γεννήθηκες [Δημήτρης Μηλιός-Φίλιππος Νικολάου]
TTITLE12=Χάρτινο καράβι [bt, Γιώργος Κατσαρός-Πυθαγόρας]
TTITLE13=Σ' ένα σταθμό [bt, Δημήτρης Μηλιός-Φίλιππος Νικολάου]
TTITLE14=Πόσο θέλω [bt, Φίλιππος Νικολάου]
TTITLE15=Πέρασα χθες [bt, Κωνσταντίνος Κατσίγρας-Φίλιππος Νικολάου]
TTITLE16=Βλέπω πως έφτασε η ώρα [bt, Γιώργος Χατχηνάσιος-Τάσος Οικονόμου]
TTITLE17=Απογοήτευση [bt, Γιώργος Κατσαρός-Πυθαγόρας]
EXTD=
EXTT0=
EXTT1=
EXTT2=
EXTT3=
EXTT4=
EXTT5=
EXTT6=
EXTT7=
EXTT8=
EXTT9=
EXTT10=
EXTT11=
EXTT12=
EXTT13=
EXTT14=
EXTT15=
EXTT16=
EXTT17=
PLAYORDER=
